<?xml version="1.0" standalone="no"?>
<!DOCTYPE svg PUBLIC "-//W3C//DTD SVG 20010904//EN"
 "http://www.w3.org/TR/2001/REC-SVG-20010904/DTD/svg10.dtd">
<svg version="1.0" xmlns="http://www.w3.org/2000/svg"
 width="202.000000pt" height="51.000000pt" viewBox="0 0 202.000000 51.000000"
 preserveAspectRatio="xMidYMid meet">

<g transform="translate(0.000000,51.000000) scale(0.100000,-0.100000)"
fill="#000000" stroke="none">
<path d="M10 255 l0 -245 1000 0 1000 0 0 245 0 245 -1000 0 -1000 0 0 -245z
m380 10 c0 -38 3 -45 20 -45 11 0 20 -4 20 -10 0 -5 -16 -10 -35 -10 l-35 0 0
55 c0 42 3 55 15 55 11 0 15 -12 15 -45z m830 -10 c0 -42 -3 -55 -15 -55 -12
0 -15 13 -15 55 0 42 3 55 15 55 12 0 15 -13 15 -55z m-709 25 c37 -20 18 -80
-26 -80 -43 0 -63 58 -27 79 22 13 29 13 53 1z m129 -52 c0 -52 -3 -60 -24
-69 -17 -8 -29 -8 -45 0 -30 17 -26 29 10 27 18 0 34 4 36 10 2 7 -8 9 -27 6
-25 -4 -31 0 -40 24 -10 24 -8 31 8 45 11 8 34 16 51 16 l31 0 0 -59z m100 44
c42 -34 -12 -94 -59 -65 -26 16 -26 58 1 71 31 15 33 15 58 -6z m583 6 c20
-10 23 -48 5 -66 -7 -7 -22 -12 -35 -12 -18 0 -23 -6 -23 -25 0 -16 -6 -25
-15 -25 -12 0 -15 14 -15 69 l0 70 33 -1 c17 0 40 -5 50 -10z m97 -3 c10 -12
10 -15 0 -15 -10 0 -10 -3 0 -15 7 -8 10 -22 6 -31 -7 -19 -67 -16 -74 5 -4
11 2 12 23 7 17 -4 24 -3 20 4 -3 5 -12 10 -20 10 -21 0 -28 19 -15 35 16 19
44 19 60 0z m50 -7 c1 -55 34 -62 42 -9 1 14 9 26 16 29 8 2 12 -10 12 -43 l0
-46 -42 3 c-43 3 -43 3 -46 46 -2 25 1 42 7 42 6 0 11 -10 11 -22z m166 11 c3
-5 13 -5 25 1 31 17 59 -4 59 -45 0 -24 -5 -35 -15 -35 -11 0 -15 11 -15 36 0
28 -3 35 -17 32 -12 -2 -19 -14 -21 -36 -2 -17 -7 -32 -12 -32 -5 0 -10 15
-12 32 -2 22 -9 34 -20 36 -15 3 -18 -4 -18 -32 0 -25 -4 -36 -15 -36 -11 0
-15 11 -15 43 0 42 1 43 35 44 19 1 38 -3 41 -8z"/>
<path d="M464 255 c-4 -9 -2 -21 4 -27 15 -15 44 -1 40 19 -4 23 -36 29 -44 8z"/>
<path d="M574 255 c-4 -9 -2 -21 4 -27 15 -15 44 -1 40 19 -4 23 -36 29 -44 8z"/>
<path d="M687 257 c-8 -20 9 -41 27 -34 23 9 21 47 -3 47 -10 0 -21 -6 -24
-13z"/>
<path d="M1272 248 c2 -13 10 -23 18 -23 8 0 16 10 18 23 3 17 -2 22 -18 22
-16 0 -21 -5 -18 -22z"/>
</g>
</svg>
